<?xml version="1.0" encoding="UTF-8" standalone="no"?>
<svg
   xmlns:dc="http://purl.org/dc/elements/1.1/"
   xmlns:cc="http://creativecommons.org/ns#"
   xmlns:rdf="http://www.w3.org/1999/02/22-rdf-syntax-ns#"
   xmlns:svg="http://www.w3.org/2000/svg"
   xmlns="http://www.w3.org/2000/svg"
   xmlns:sodipodi="http://sodipodi.sourceforge.net/DTD/sodipodi-0.dtd"
   xmlns:inkscape="http://www.inkscape.org/namespaces/inkscape"
   id="Layer_1"
   version="1.1"
   viewBox="0 0 750 580"
   xml:space="preserve"
   inkscape:version="0.91 r13725"
   sodipodi:docname="radio.svg"
   width="750"
   height="580"><metadata
     id="metadata25"><rdf:RDF><cc:Work
         rdf:about=""><dc:format>image/svg+xml</dc:format><dc:type
           rdf:resource="http://purl.org/dc/dcmitype/StillImage" /><dc:title></dc:title></cc:Work></rdf:RDF></metadata><defs
     id="defs23" /><sodipodi:namedview
     pagecolor="#ffffff"
     bordercolor="#666666"
     borderopacity="1"
     objecttolerance="10"
     gridtolerance="10"
     guidetolerance="10"
     inkscape:pageopacity="0"
     inkscape:pageshadow="2"
     inkscape:window-width="1920"
     inkscape:window-height="979"
     id="namedview21"
     showgrid="false"
     inkscape:zoom="0.31466667"
     inkscape:cx="-166.84322"
     inkscape:cy="375"
     inkscape:window-x="0"
     inkscape:window-y="24"
     inkscape:window-maximized="1"
     inkscape:current-layer="Layer_1" /><style
     type="text/css"
     id="style3">
	.st0{fill:#414042;}
</style><g
     id="g5"
     style="fill:#009bff;fill-opacity:1"
     transform="translate(9.5338983,-39.70339)"><path
       class="st0"
       d="m 460.1,252.8 -336.4,0 c -6.9,0 -12.5,5.6 -12.5,12.5 0,6.9 5.6,12.5 12.5,12.5 l 336.4,0 c 6.9,0 12.5,-5.6 12.5,-12.5 0,-6.9 -5.6,-12.5 -12.5,-12.5 z"
       id="path7"
       style="fill:#009bff;fill-opacity:1"
       inkscape:connector-curvature="0" /><path
       class="st0"
       d="m 460.1,322.8 -336.4,0 c -6.9,0 -12.5,5.6 -12.5,12.5 0,6.9 5.6,12.5 12.5,12.5 l 336.4,0 c 6.9,0 12.5,-5.6 12.5,-12.5 0,-6.9 -5.6,-12.5 -12.5,-12.5 z"
       id="path9"
       style="fill:#009bff;fill-opacity:1"
       inkscape:connector-curvature="0" /><path
       class="st0"
       d="m 460.1,392.8 -336.4,0 c -6.9,0 -12.5,5.6 -12.5,12.5 0,6.9 5.6,12.5 12.5,12.5 l 336.4,0 c 6.9,0 12.5,-5.6 12.5,-12.5 0,-6.9 -5.6,-12.5 -12.5,-12.5 z"
       id="path11"
       style="fill:#009bff;fill-opacity:1"
       inkscape:connector-curvature="0" /><path
       class="st0"
       d="m 326.2,467.8 -202.5,0 c -6.9,0 -12.5,5.6 -12.5,12.5 0,6.9 5.6,12.5 12.5,12.5 l 202.5,0 c 6.9,0 12.5,-5.6 12.5,-12.5 0,-6.9 -5.6,-12.5 -12.5,-12.5 z"
       id="path13"
       style="fill:#009bff;fill-opacity:1"
       inkscape:connector-curvature="0" /><path
       class="st0"
       d="m 596.8,234.9 c -21.7,0 -39.3,17.7 -39.3,39.3 0,21.6 17.7,39.3 39.3,39.3 21.6,0 39.3,-17.7 39.3,-39.3 0,-21.6 -17.6,-39.3 -39.3,-39.3 z m 0,53.7 c -7.9,0 -14.3,-6.4 -14.3,-14.3 0,-7.9 6.4,-14.3 14.3,-14.3 7.9,0 14.3,6.4 14.3,14.3 0,7.9 -6.3,14.3 -14.3,14.3 z"
       id="path15"
       style="fill:#009bff;fill-opacity:1"
       inkscape:connector-curvature="0" /><path
       class="st0"
       d="m 596.8,335.7 c -21.7,0 -39.3,17.7 -39.3,39.3 0,21.6 17.7,39.3 39.3,39.3 21.6,0 39.3,-17.7 39.3,-39.3 0,-21.6 -17.6,-39.3 -39.3,-39.3 z m 0,53.6 c -7.9,0 -14.3,-6.4 -14.3,-14.3 0,-7.9 6.4,-14.3 14.3,-14.3 7.9,0 14.3,6.4 14.3,14.3 0,7.9 -6.3,14.3 -14.3,14.3 z"
       id="path17"
       style="fill:#009bff;fill-opacity:1"
       inkscape:connector-curvature="0" /><path
       class="st0"
       d="m 685,175.3 -26.3,0 L 522,76.2 c -5.6,-4.1 -13.4,-2.8 -17.5,2.8 -4.1,5.6 -2.8,13.4 2.8,17.5 l 108.8,78.9 -551.1,0 c -6.9,0 -12.5,5.6 -12.5,12.5 l 0,370 c 0,6.9 5.6,12.5 12.5,12.5 l 620,0 c 6.9,0 12.5,-5.6 12.5,-12.5 l 0,-370 c 0,-7 -5.6,-12.6 -12.5,-12.6 z m -12.5,370 -595,0 0,-345 577.1,0 c 0,0 0,0 0,0 0,0 0,0 0,0 l 17.8,0 0,345 z"
       id="path19"
       style="fill:#009bff;fill-opacity:1"
       inkscape:connector-curvature="0" /></g></svg>