<?xml version="1.0" encoding="UTF-8" standalone="no"?>
<!-- Created with Inkscape (http://www.inkscape.org/) -->

<svg
   xmlns:dc="http://purl.org/dc/elements/1.1/"
   xmlns:cc="http://creativecommons.org/ns#"
   xmlns:rdf="http://www.w3.org/1999/02/22-rdf-syntax-ns#"
   xmlns:svg="http://www.w3.org/2000/svg"
   xmlns="http://www.w3.org/2000/svg"
   xmlns:sodipodi="http://sodipodi.sourceforge.net/DTD/sodipodi-0.dtd"
   xmlns:inkscape="http://www.inkscape.org/namespaces/inkscape"
   width="150"
   height="120"
   viewBox="0 0 150 90"
   id="svg2"
   version="1.1"
   inkscape:version="0.91 r13725"
   sodipodi:docname="socialmedia.svg">
  <defs
     id="defs4" />
  <sodipodi:namedview
     id="base"
     pagecolor="#ffffff"
     bordercolor="#666666"
     borderopacity="1.0"
     inkscape:pageopacity="0.0"
     inkscape:pageshadow="2"
     inkscape:zoom="2.8"
     inkscape:cx="-70.178571"
     inkscape:cy="82.750283"
     inkscape:document-units="px"
     inkscape:current-layer="layer1"
     showgrid="false"
     units="px"
     inkscape:showpageshadow="true"
     borderlayer="true"
     showborder="true"
     inkscape:window-width="1680"
     inkscape:window-height="949"
     inkscape:window-x="0"
     inkscape:window-y="24"
     inkscape:window-maximized="1" />
  <metadata
     id="metadata7">
    <rdf:RDF>
      <cc:Work
         rdf:about="">
        <dc:format>image/svg+xml</dc:format>
        <dc:type
           rdf:resource="http://purl.org/dc/dcmitype/StillImage" />
        <dc:title />
      </cc:Work>
    </rdf:RDF>
  </metadata>
  <g
     inkscape:label="Layer 1"
     inkscape:groupmode="layer"
     id="layer1"
     transform="translate(0,-962.36221)">
    <g
       id="g5756" />
    <path
       id="path7118"
       d="M -141.42857,866.29078"
       inkscape:connector-curvature="0" />
    <g
       id="g7791"
       transform="translate(-11.785714,30.357143)">
      <g
         transform="matrix(0.76190476,0,0,0.76190476,117.73812,975.81458)"
         id="g5740">
        <path
           style="fill:#009bff;fill-opacity:1"
           inkscape:connector-curvature="0"
           d="M 45,1 5,1 C 2.8,1 1,2.8 1,5 l 0,40 c 0,2.2 1.8,4 4,4 l 40,0 c 2.2,0 4,-1.8 4,-4 L 49,5 C 49,2.8 47.2,1 45,1 Z"
           id="path5731" />
        <path
           style="fill:#ffffff"
           inkscape:connector-curvature="0"
           d="m 40,16.2 c -1.1,0.5 -2.8,1.1 -4,1.3 1.3,-0.8 2.5,-2.6 3,-4 -1,0.6 -2.1,1.4 -3.2,1.8 L 35,14.5 c -1.1,-1.2 -2.2,-2 -4,-2 -3.4,0 -6,2.6 -6,6 0,0.4 0,0.7 0.1,1 l -0.1,0 c -6,0 -10,-1.3 -13,-5 -0.5,0.9 -1,1.9 -1,3 0,2.1 1.3,3.9 3,5 -1,0 -2.2,-0.5 -3,-1 0,3 4.2,6.4 7,7 -1,1 -4.6,0.1 -5,0 0.8,2.4 3.3,3.9 6,4 -2.1,1.6 -4.6,2.5 -7.5,2.5 -0.5,0 -1,0 -1.5,-0.1 2.7,1.7 6.5,2.6 10,2.6 11.3,0 17,-8.9 17,-17 0,-0.3 0,-0.7 0,-1 1.2,-0.9 2.2,-2.1 3,-3.3 z"
           id="Brid_1_" />
        <path
           id="path4156"
           d="m -9.3750001,-50.5625 -39.9999999,0 c -2.2,0 -4,1.8 -4,4 l 0,39.9999999 c 0,2.2 1.8,4 4,4 l 39.9999999,0 c 2.2,0 4,-1.8 4,-4 l 0,-39.9999999 c 0,-2.2 -1.8,-4 -4,-4 z"
           inkscape:connector-curvature="0"
           style="fill:#009bff;fill-opacity:1" />
      </g>
      <g
         transform="matrix(0.96495535,0,0,0.96495535,-2.1852617,33.153514)"
         id="g5760">
        <g
           transform="matrix(0.85090189,0,0,0.80524662,15.014265,185.99734)"
           id="g5764">
          <path
             style="fill:#ffffff;fill-opacity:1"
             inkscape:connector-curvature="0"
             id="path36"
             d="m 110.90655,935.98159 c 0,0 -0.11143,-1.6654 -3.00741,-1.66803 -2.89598,-0.003 -7.01729,-0.11143 -8.465099,0.83402 -1.44818,0.94544 -4.344159,3.61857 -4.344159,9.07625 0,5.45806 0,5.45806 0,5.45806 0,0 0.333907,0.89105 -0.891043,1.00247 -1.224949,0.11143 -2.450274,0 -2.450274,0 0,0 -1.559606,-0.0555 -1.503705,2.50618 0.05553,2.56208 -0.0015,4.45521 -0.0015,4.45521 0,0 -0.388307,1.00247 1.282352,1.16943 1.671033,0.16695 1.671033,0.16695 1.671033,0.16695 0,0 2.060842,-1.05837 1.782086,3.17436 -0.278755,4.23274 0.05553,6.73892 0.05553,6.73892 l 0,6.57195 c 0,0 -0.111427,1.61251 2.394745,1.61251 2.50618,0 4.733604,0 4.733604,0 0,0 1.67066,0.33616 1.55961,-2.22517 -0.11143,-2.5617 -0.11143,-13.31087 -0.11143,-13.31087 l 0,-2.22742 c 0,0 0.0551,-1.28122 0.94657,-1.39265 0.89104,-0.11105 3.89845,0 3.89845,0 0,0 0.55714,0.33466 1.00285,-2.22742 0.44533,-2.56208 0.44533,-3.34169 0.44533,-3.34169 0,0 0.83589,-1.33675 -0.72371,-1.33675 -1.55961,0 -4.06579,-0.11143 -4.06579,-0.11143 0,0 -1.5037,0.11105 -1.5037,-2.00494 0,-2.11599 0.11143,-4.7895 0.11143,-4.7895 0,0 0.16732,-1.94941 2.22779,-1.94941 2.06047,0 3.95398,0.0555 3.95398,0.0555 0,0 1.00247,-0.11105 1.00247,-2.28332 0,-2.17114 0,-3.95323 0,-3.95323 z" />
        </g>
      </g>
      <g
         style="fill:#009bff;fill-opacity:1;fill-rule:evenodd;stroke:none;stroke-width:1"
         transform="matrix(3.7737012,0,0,3.3717009,-7.2645042,932.61641)"
         id="miu">
        <g
           style="fill:#009bff;fill-opacity:1"
           id="Artboard-1"
           transform="translate(-251,-623)">
          <g
             style="fill:#009bff;fill-opacity:1"
             id="slice"
             transform="translate(215,119)" />
          <path
             style="fill:#009bff;fill-opacity:1"
             inkscape:connector-curvature="0"
             d="m 258,626.2053 0,19.8477 c 0,2.2053 2.20191,2.2053 2.20191,2.2053 l 7.70667,0 c 0,0 2.20191,0 2.20191,-2.2053 l 0,-19.8477 C 270.11049,624 267.90858,624 267.90858,624 l -7.70667,0 c 0,0 -2.20191,0 -2.20191,2.2053 z m 1.10095,0.54708 0,17.61526 9.90858,0 0,-17.61526 -9.90858,0 0,0 z m 4.95429,20.58783 c 0.60804,0 1.10096,-0.49292 1.10096,-1.10095 0,-0.60805 -0.49292,-1.10096 -1.10096,-1.10096 -0.60803,0 -1.10095,0.49291 -1.10095,1.10096 0,0.60803 0.49292,1.10095 1.10095,1.10095 l 0,0 z M 262.55,625.10095 c -0.0807,0 -0.14619,0.1063 -0.14619,0.24342 l 0,0.0645 c 0,0.13444 0.0659,0.24342 0.14619,0.24342 l 3.01049,0 c 0.0807,0 0.14618,-0.10624 0.14618,-0.24342 l 0,-0.0645 c 0,-0.13443 -0.066,-0.24342 -0.14618,-0.24342 l -3.01049,0 0,0 z"
             id="device-iPhone-smart-phone-vertical-glyph" />
        </g>
      </g>
      <path
         style="fill:#009bff;fill-opacity:1"
         inkscape:connector-curvature="0"
         d="m 142.72436,941.50328 -19.02053,0 c -3.30392,0 -5.99183,2.68729 -5.99183,5.99121 l 0,6.32892 0,12.69223 c 0,3.30392 2.68791,5.99121 5.99183,5.99121 l 19.02116,0 c 3.30392,0 5.99121,-2.68729 5.99121,-5.99121 l 0,-12.69286 0,-6.32892 c -6.3e-4,-3.30392 -2.68792,-5.99058 -5.99184,-5.99058 z m 1.71857,3.57284 0.68542,-0.002 0,0.68229 0,4.57283 -5.23762,0.0169 -0.0181,-5.2545 4.57033,-0.015 z m -15.65407,8.74666 c 0.99311,-1.37397 2.60411,-2.27516 4.42524,-2.27516 1.82113,0 3.43212,0.90119 4.42399,2.27516 0.64602,0.89681 1.03314,1.99374 1.03314,3.18197 0,3.00874 -2.45027,5.45651 -5.45776,5.45651 -3.00936,0 -5.45713,-2.44777 -5.45713,-5.45651 6.3e-4,-1.18823 0.38649,-2.28516 1.03252,-3.18197 z m 16.90609,12.69224 c 0,1.63914 -1.3327,2.97059 -2.97059,2.97059 l -19.02053,0 c -1.63851,0 -2.97121,-1.33145 -2.97121,-2.97059 l 0,-12.69224 4.62787,0 c -0.39963,0.98311 -0.62414,2.0569 -0.62414,3.18197 0,4.67352 3.80235,8.47838 8.47775,8.47838 4.67477,0 8.47712,-3.80486 8.47712,-8.47838 0,-1.12507 -0.22576,-2.19886 -0.62539,-3.18197 l 4.62912,0 0,12.69224 z"
         id="path5872" />
      <g
         transform="matrix(0.33314732,0,0,0.33314732,73.508547,969.89764)"
         id="_x34__stroke">
        <g
           id="Youtube_1_">
          <rect
             style="clip-rule:evenodd;fill:none;fill-rule:evenodd"
             y="0"
             x="0"
             height="128"
             width="128"
             id="rect7775" />
          <path
             style="clip-rule:evenodd;fill:#009bff;fill-opacity:1;fill-rule:evenodd"
             inkscape:connector-curvature="0"
             d="m 126.72,38.224 c 0,0 -1.252,-8.883 -5.088,-12.794 -4.868,-5.136 -10.324,-5.16 -12.824,-5.458 -17.912,-1.305 -44.78,-1.305 -44.78,-1.305 l -0.056,0 c 0,0 -26.868,0 -44.78,1.305 C 16.688,20.27 11.236,20.294 6.364,25.43 2.528,29.342 1.28,38.224 1.28,38.224 1.28,38.224 0,48.658 0,59.087 l 0,9.781 c 0,10.433 1.28,20.863 1.28,20.863 0,0 1.248,8.883 5.084,12.794 4.872,5.136 11.268,4.975 14.116,5.511 10.24,0.991 43.52,1.297 43.52,1.297 0,0 26.896,-0.04 44.808,-1.345 2.5,-0.302 7.956,-0.326 12.824,-5.462 3.836,-3.912 5.088,-12.794 5.088,-12.794 0,0 1.28,-10.43 1.28,-20.864 l 0,-9.781 c 0,-10.429 -1.28,-20.863 -1.28,-20.863 z M 50.784,80.72 50.78,44.501 85.364,62.673 50.784,80.72 Z"
             id="Youtube" />
        </g>
      </g>
    </g>
  </g>
</svg>
