<?xml version="1.0" encoding="UTF-8" standalone="no"?>
<svg
   xmlns:dc="http://purl.org/dc/elements/1.1/"
   xmlns:cc="http://creativecommons.org/ns#"
   xmlns:rdf="http://www.w3.org/1999/02/22-rdf-syntax-ns#"
   xmlns:svg="http://www.w3.org/2000/svg"
   xmlns="http://www.w3.org/2000/svg"
   xmlns:sodipodi="http://sodipodi.sourceforge.net/DTD/sodipodi-0.dtd"
   xmlns:inkscape="http://www.inkscape.org/namespaces/inkscape"
   enable-background="new 0 0 48 48"
   height="40"
   id="Layer_1"
   version="1.1"
   viewBox="0 0 48 40"
   width="48"
   xml:space="preserve"
   inkscape:version="0.91 r13725"
   sodipodi:docname="TV.svg"><metadata
     id="metadata9"><rdf:RDF><cc:Work
         rdf:about=""><dc:format>image/svg+xml</dc:format><dc:type
           rdf:resource="http://purl.org/dc/dcmitype/StillImage" /><dc:title></dc:title></cc:Work></rdf:RDF></metadata><defs
     id="defs7" /><sodipodi:namedview
     pagecolor="#ffffff"
     bordercolor="#666666"
     borderopacity="1"
     objecttolerance="10"
     gridtolerance="10"
     guidetolerance="10"
     inkscape:pageopacity="0"
     inkscape:pageshadow="2"
     inkscape:window-width="1920"
     inkscape:window-height="979"
     id="namedview5"
     showgrid="false"
     inkscape:zoom="4.9166667"
     inkscape:cx="-51.966101"
     inkscape:cy="64.677966"
     inkscape:window-x="0"
     inkscape:window-y="24"
     inkscape:window-maximized="1"
     inkscape:current-layer="Layer_1" /><path
     d="m 45.79661,34.288136 -43.9999998,0 c -0.553,0 -1.00000003,-0.447 -1.00000003,-1 l 0,-28.0000004 c 0,-0.552 0.44700003,-1 1.00000003,-1 l 43.9999998,0 c 0.553,0 1,0.448 1,1 l 0,28.0000004 c 0,0.553 -0.447,1 -1,1 z m -1,-28.0000004 -41.9999998,0 0,26.0000004 41.9999998,0 0,-26.0000004 z m -24,7.0000004 c 0.214,0 0.4,0.082 0.563,0.196 l 7.771,4.872 c 0.386,0.137 0.666,0.498 0.666,0.932 0,0.325 -0.165,0.601 -0.405,0.783 l -7.974,4.981 c -0.172,0.14 -0.383,0.236 -0.621,0.236 -0.553,0 -1,-0.447 -1,-1 l 0,-10 c 0,-0.552 0.447,-1 1,-1 z m -6,23 18,0 c 0.553,0 1,0.447 1,1 0,0.553 -0.447,1 -1,1 l -18,0 c -0.553,0 -1,-0.447 -1,-1 0,-0.553 0.447,-1 1,-1 z"
     id="path3"
     style="clip-rule:evenodd;fill:#009bff;fill-opacity:1;fill-rule:evenodd"
     inkscape:connector-curvature="0" /><rect
     style="fill:#009bff;fill-opacity:1;stroke:none"
     id="rect4144"
     width="39.457626"
     height="23.38983"
     x="4.0677967"
     y="7.6610169" /></svg>